<?xml version="1.0" standalone="no"?>
<!DOCTYPE svg PUBLIC "-//W3C//DTD SVG 20010904//EN"
 "http://www.w3.org/TR/2001/REC-SVG-20010904/DTD/svg10.dtd">
<svg version="1.0" xmlns="http://www.w3.org/2000/svg"
 width="99.000000pt" height="88.000000pt" viewBox="0 0 99.000000 88.000000"
 preserveAspectRatio="xMidYMid meet">

<g transform="translate(0.000000,88.000000) scale(0.100000,-0.100000)"
 stroke="none">
<path d="M108 749 c-24 -13 -18 -26 106 -237 217 -370 288 -487 299 -494 20
-12 40 17 186 266 113 193 138 243 130 258 -11 20 -42 23 -87 7 -26 -9 -44
-33 -102 -134 -84 -146 -102 -170 -122 -163 -13 6 -205 327 -221 371 -12 32
35 37 328 37 l283 0 27 32 27 32 -22 18 c-21 17 -52 18 -419 18 -245 0 -403
-4 -413 -11z"/>
</g>
</svg>
