<?xml version="1.0" standalone="no"?>
<!DOCTYPE svg PUBLIC "-//W3C//DTD SVG 20010904//EN"
 "http://www.w3.org/TR/2001/REC-SVG-20010904/DTD/svg10.dtd">
<svg version="1.0" xmlns="http://www.w3.org/2000/svg"
 width="95.000000pt" height="93.000000pt" viewBox="0 0 95.000000 93.000000"
 preserveAspectRatio="xMidYMid meet">

<g transform="translate(0.000000,93.000000) scale(0.100000,-0.100000)"
 stroke="none">
<path d="M427 828 c-35 -55 -154 -265 -160 -280 -7 -21 19 -38 58 -38 40 0 80
26 104 66 22 36 23 37 40 18 11 -10 67 -104 127 -207 86 -151 105 -191 93
-198 -21 -13 -413 -11 -443 2 l-25 12 22 32 c18 28 29 34 72 39 27 3 74 6 103
6 96 0 117 32 59 88 l-33 32 -130 0 c-112 0 -133 -2 -146 -17 -13 -16 -121
-206 -156 -277 -12 -24 -12 -30 -1 -37 19 -12 870 -11 889 1 12 8 12 13 -2 42
-24 50 -364 644 -396 692 -33 48 -55 56 -75 24z"/>
</g>
</svg>
