<?xml version="1.0" standalone="no"?>
<!DOCTYPE svg PUBLIC "-//W3C//DTD SVG 20010904//EN"
 "http://www.w3.org/TR/2001/REC-SVG-20010904/DTD/svg10.dtd">
<svg version="1.0" xmlns="http://www.w3.org/2000/svg"
 width="88.000000pt" height="94.000000pt" viewBox="0 0 88.000000 94.000000"
 preserveAspectRatio="xMidYMid meet">

<g transform="translate(0.000000,94.000000) scale(0.100000,-0.100000)"
 stroke="none">
<path d="M273 783 c-147 -3 -163 -5 -163 -21 1 -9 102 -138 225 -286 124 -149
225 -276 225 -283 0 -16 -255 -19 -265 -3 -4 6 7 28 24 49 17 21 31 47 31 58
0 27 -23 56 -42 52 -15 -4 -142 -144 -186 -206 -22 -31 -22 -32 -3 -42 21 -12
587 -16 615 -5 9 3 16 12 16 20 0 7 -55 77 -123 156 -207 240 -327 391 -327
410 0 16 11 18 130 18 146 0 148 -1 100 -64 -17 -22 -30 -47 -30 -56 0 -25 35
-53 57 -45 23 7 187 201 191 225 2 14 -8 18 -59 24 -34 3 -105 5 -158 4 -53
-1 -169 -4 -258 -5z"/>
</g>
</svg>
