<?xml version="1.0" encoding="UTF-8" standalone="no"?>
<svg
  viewBox="0 0 130.59879 140.24231"
  version="1.1"
  xmlns="http://www.w3.org/2000/svg"
  xmlns:svg="http://www.w3.org/2000/svg"
>
  <g transform="translate(-41.289896,-86.271702)">
    <g
      style="display:inline;"
      transform="translate(-0.41659121,-0.46716354)"
    >
    <path
      style="stroke-linecap:butt;stroke-linejoin:miter;stroke-opacity:1"
      d="m 159.01199,88.866168 c -18.34359,10.378608 -54.49989,1.641236 -57.20315,8.109765 0.47315,-1.592997 0.75969,-3.185787 0.28967,-4.778785 -1.77455,2.929933 -6.849159,4.967597 -6.661392,8.254312 -5.165167,1.35163 -13.095552,1.63289 -15.495625,4.05488 0.44655,-0.88338 0.01208,-2.11914 -0.723903,-3.47553 -3.55964,1.69794 -4.54903,3.22445 -4.557672,4.68565 -5.019957,5.31509 -3.513573,9.76035 -1.524937,14.14095 3.052706,-0.10282 5.617635,-2.50584 7.599978,-2.51952 4.956367,0.74921 11.414603,-1.54507 11.414603,-1.54507 5.14405,1.12764 6.163883,1.82701 9.513578,1.53636 0,0 -1.31927,2.03848 -2.350543,2.57337 -1.933508,1.00287 -4.445348,0.0517 -6.481983,0.82389 -2.403732,0.9114 -3.995949,3.36394 -6.372283,4.34455 -2.678098,1.10515 -8.543994,1.59293 -8.543994,1.59293 -0.273801,3.4546 5.695908,4.0546 8.543994,6.08204 2.482933,0.31371 6.660781,-5.97328 11.73042,-5.21358 0,0 6.280079,3.4804 9.557569,2.89675 4.22079,-0.75163 12.0201,-0.72447 12.0201,-0.72447 9.08708,0.44756 17.4666,10.26681 18.11548,15.34979 7.40861,-3.45658 2.36956,-23.52998 -6.4346,-42.12312 12.70938,-0.0212 22.31146,-8.272791 27.56469,-14.065162 z m -57.45765,21.093142 0.7479,-4.25853 c 0.60152,-2.36682 7.66722,-0.35114 11.33649,-0.0885 -2.31926,2.2621 -2.99507,3.75727 -9.80639,2.62293 z"
    />
    <path
      style="stroke-width:0.264583px;stroke-linecap:butt;stroke-linejoin:miter;stroke-opacity:1"
      d="m 75.038707,216.6767 c 0,0 -26.399171,-15.95984 -30.406041,-43.59839 -4.00687,-27.63855 8.446322,-44.7299 8.446322,-44.7299 0,0 -3.778935,26.21675 13.17996,45.55669 -8.582565,25.10314 8.779759,42.7716 8.779759,42.7716 z"
    />
    <path
      style="stroke-width:0.264583px;stroke-linecap:butt;stroke-linejoin:miter;stroke-opacity:1"
      d="m 70.025061,167.69235 c 2.875216,-4.88324 6.409888,-9.10703 10.344612,-12.93076 -6.112655,-6.74313 -8.075663,-14.07906 -6.763784,-21.88283 -5.579389,9.91769 -11.436294,19.72865 -3.580828,34.81359 z"
    />
    <path
      style="fill-opacity:1;stroke-width:1.00157;stroke-linejoin:round;stroke-miterlimit:4;stroke-dasharray:none;stroke-opacity:1;paint-order:normal"
      d="m 529.70898,407.55273 c 56.64949,117.83203 29.65692,167.95998 -9.98046,180.9961 -41.10501,13.5188 -78.11881,-18.35742 -115.72461,-18.35742 -77.2176,0 -139.81445,62.59685 -139.81446,139.81445 10e-6,77.2176 62.59703,139.65233 139.81446,139.81445 18.65803,0.0392 29.85661,-0.70221 46.33023,-2.48042 C 513.63431,840.5071 578.94676,800.99919 617.5918,724.4375 676.04033,608.64211 629.09548,468.55416 529.70898,407.55273 Z M 396.73047,627.91406 c 32.29307,-0.11514 48.1474,21.4579 112.47265,19.75977 -66.05317,23.72186 -152.96542,10.01932 -182.82226,69.9375 0,0 -0.14907,-74.55144 50.30664,-87.11524 7.52003,-1.79427 14.06277,-2.5607 20.04297,-2.58203 z m 200.64062,3.19532 c 0,0 -7.11866,40.413 -31.84765,73.52929 -20.28382,27.1635 -48.90155,47.84606 -83.64649,64.40625 -96.60551,46.04429 -136.28906,-10.86328 -136.28906,-10.86328 21.55542,-78.14476 176.24005,-31.13611 251.7832,-127.07226 z"
      transform="scale(0.26458333)"
    />
    </g>
  </g>
</svg>
